<svg width="512" height="512" viewBox="0 0 512 512" fill="none" xmlns="http://www.w3.org/2000/svg">
<g clip-path="url(#clip0)">
<path d="M149.087 216.412C148.961 221.309 149.565 226.197 150.879 230.916C152.328 234.951 154.071 238.874 156.096 242.653C156.821 243.77 157.217 245.069 157.237 246.401C157.237 248.03 156.259 249.661 154.141 251.29L143.874 258.134C142.635 259.026 141.162 259.536 139.637 259.601C137.781 259.473 136.039 258.66 134.749 257.319C132.552 254.96 130.587 252.395 128.88 249.661C127.25 246.89 125.619 243.792 123.828 240.046C111.116 255.035 95.1451 262.53 75.9139 262.53C62.22 262.53 51.3058 258.618 43.3205 250.793C35.3351 242.969 31.2605 232.545 31.2605 219.509C31.2605 205.657 36.1493 194.413 46.0909 185.939C56.0326 177.465 69.2318 173.228 86.0176 173.228C91.7986 173.275 97.5699 173.711 103.292 174.532C109.322 175.347 115.516 176.65 122.034 178.117V166.221C122.034 153.832 119.425 145.2 114.374 140.147C109.158 135.096 100.359 132.652 87.81 132.652C81.8794 132.651 75.9702 133.362 70.209 134.77C64.2181 136.197 58.3363 138.048 52.6081 140.31C50.7548 141.139 48.8495 141.847 46.9042 142.429C46.0603 142.707 45.1832 142.871 44.2958 142.918C42.0144 142.918 40.8733 141.288 40.8733 137.866V129.881C40.8733 127.273 41.1993 125.317 42.0144 124.178C43.2442 122.692 44.8085 121.519 46.5791 120.755C53.1156 117.521 60.0069 115.06 67.1135 113.422C75.4176 111.292 83.9638 110.251 92.5367 110.326C111.934 110.326 126.108 114.726 135.235 123.526C144.198 132.325 148.761 145.688 148.761 163.614V216.412H149.087ZM82.9221 241.182C88.6392 241.119 94.3082 240.128 99.7078 238.249C105.689 236.18 111.026 232.583 115.189 227.816C117.816 224.812 119.713 221.241 120.73 217.383C121.85 212.741 122.397 207.98 122.36 203.205V196.368C117.418 195.166 112.414 194.241 107.369 193.598C102.287 192.954 97.1701 192.629 92.0476 192.625C81.1288 192.625 73.1435 194.743 67.7656 199.145C62.3877 203.547 59.7802 209.737 59.7802 217.885C59.7802 225.544 61.7365 231.248 65.8102 235.159C69.7228 239.233 75.4258 241.189 82.9221 241.189V241.182ZM213.786 258.782C210.852 258.782 208.897 258.293 207.593 257.153C206.289 256.175 205.148 253.892 204.17 250.797L165.871 124.83C165.129 122.721 164.636 120.533 164.405 118.309C164.405 115.701 165.709 114.235 168.317 114.235H184.288C187.384 114.235 189.505 114.724 190.644 115.864C191.948 116.842 192.925 119.124 193.904 122.22L221.283 230.098L246.705 122.222C247.52 118.962 248.498 116.845 249.802 115.867C251.106 114.889 253.387 114.238 256.323 114.238H269.365C272.461 114.238 274.581 114.727 275.886 115.867C277.19 116.845 278.33 119.127 278.982 122.222L304.731 231.405L332.916 122.222C333.894 118.962 335.034 116.845 336.176 115.867C337.48 114.889 339.599 114.238 342.532 114.238H357.689C360.297 114.238 361.763 115.542 361.763 118.312C361.725 119.189 361.616 120.061 361.437 120.92C361.182 122.31 360.8 123.674 360.296 124.995L321.021 250.962C320.043 254.221 318.902 256.339 317.598 257.318C315.756 258.497 313.589 259.067 311.405 258.947H297.389C294.292 258.947 292.172 258.458 290.868 257.318C289.564 256.177 288.423 254.057 287.771 250.797L262.513 145.688L237.415 250.634C236.6 253.894 235.623 256.012 234.318 257.155C233.014 258.297 230.733 258.784 227.797 258.784L213.786 258.782ZM423.201 263.181C414.749 263.19 406.325 262.206 398.104 260.248C389.955 258.292 383.599 256.174 379.362 253.727C376.754 252.261 374.963 250.631 374.311 249.163C373.676 247.725 373.343 246.171 373.332 244.599V236.293C373.332 232.871 374.637 231.242 377.081 231.242C378.079 231.245 379.07 231.41 380.014 231.731C380.993 232.057 382.459 232.709 384.089 233.36C389.846 235.892 395.855 237.804 402.016 239.064C408.399 240.359 414.896 241.015 421.409 241.02C431.676 241.02 439.662 239.228 445.203 235.642C447.858 234.041 450.041 231.764 451.53 229.045C453.019 226.326 453.761 223.261 453.68 220.162C453.738 218.064 453.378 215.975 452.623 214.017C451.868 212.059 450.732 210.271 449.281 208.754C446.347 205.658 440.803 202.886 432.821 200.278L409.185 192.946C397.288 189.198 388.488 183.658 383.111 176.323C377.864 169.56 375 161.253 374.963 152.694C374.83 146.384 376.347 140.149 379.362 134.605C382.274 129.362 386.276 124.805 391.1 121.242C396.179 117.397 401.925 114.524 408.049 112.766C414.72 110.846 421.637 109.914 428.579 110C432.229 109.974 435.876 110.191 439.497 110.652C443.246 111.141 446.67 111.793 450.09 112.444C453.351 113.259 456.446 114.074 459.38 115.053C461.758 115.788 464.052 116.771 466.225 117.986C468.144 118.954 469.816 120.347 471.114 122.06C472.173 123.646 472.688 125.534 472.58 127.438V135.097C472.58 138.519 471.276 140.313 468.831 140.313C467.527 140.313 465.409 139.661 462.638 138.357C453.349 134.12 442.919 132.001 431.348 132.001C422.059 132.001 414.725 133.467 409.674 136.566C404.622 139.664 402.014 144.39 402.014 151.069C401.97 153.233 402.382 155.382 403.224 157.376C404.067 159.369 405.32 161.163 406.903 162.639C410.164 165.736 416.193 168.832 424.83 171.602L447.972 178.931C459.71 182.68 468.18 187.894 473.232 194.575C478.207 201.131 480.845 209.161 480.728 217.39C480.812 223.935 479.361 230.409 476.492 236.293C473.6 241.87 469.542 246.761 464.595 250.633C459.214 254.821 453.07 257.922 446.505 259.762C438.956 262.083 431.097 263.237 423.2 263.184L423.201 263.181Z" fill="#252F3E"/>
<path d="M454.002 342.377C400.385 381.976 322.486 402.998 255.506 402.998C161.635 403.001 77.0542 368.291 13.1724 310.604C8.12058 306.039 12.6834 299.848 18.7134 303.431C87.8119 343.519 173.045 367.798 261.211 367.798C320.695 367.798 386.045 355.409 446.18 329.991C455.144 325.917 462.803 335.859 454.006 342.38L454.002 342.377Z" fill="#FF9900"/>
<path d="M476.329 316.958C469.484 308.158 431.023 312.722 413.585 314.84C408.369 315.492 407.555 310.927 412.281 307.507C442.919 285.997 493.277 292.188 499.144 299.359C505.012 306.692 497.514 357.046 468.831 381.165C464.432 384.913 460.194 382.957 462.149 378.068C468.669 361.935 483.174 325.595 476.329 316.958Z" fill="#FF9900"/>
</g>
<defs>
<clipPath id="clip0">
<rect width="490" height="293" fill="white" transform="translate(11 110)"/>
</clipPath>
</defs>
</svg>
