<svg width="512" height="512" viewBox="0 0 512 512" fill="none" xmlns="http://www.w3.org/2000/svg">
<g clip-path="url(#clip0)">
<path d="M474.377 99.716C460.132 85.4965 440.912 77.3556 420.769 77.0109C400.627 76.6662 381.138 84.1445 366.413 97.8683C365.675 98.5688 365.088 99.4118 364.686 100.346C364.285 101.28 364.078 102.286 364.078 103.303C364.078 104.319 364.285 105.325 364.686 106.259C365.088 107.194 365.675 108.037 366.413 108.737L375.778 118.302C377.043 119.558 378.721 120.316 380.501 120.436C382.282 120.555 384.046 120.029 385.469 118.954C394.449 111.794 405.855 108.377 417.301 109.417C428.747 110.456 439.347 115.873 446.885 124.534C454.422 133.195 458.314 144.429 457.745 155.887C457.176 167.345 452.192 178.14 443.833 186.015C382.148 247.533 299.828 75.0436 112.975 163.951C109.821 165.463 107.015 167.611 104.735 170.26C102.455 172.909 100.749 176 99.7263 179.34C98.7032 182.679 98.3846 186.194 98.7907 189.663C99.1967 193.132 100.319 196.478 102.086 199.493L134.153 254.761C137.474 260.526 142.941 264.748 149.365 266.509C155.789 268.27 162.649 267.426 168.453 264.163L169.216 263.728L168.617 264.163L182.663 256.337C198.502 246.521 213.474 235.377 227.417 223.024C228.797 221.768 230.581 221.045 232.447 220.985C234.313 220.926 236.14 221.533 237.598 222.698C238.386 223.358 239.026 224.176 239.475 225.1C239.923 226.024 240.171 227.033 240.202 228.059C240.233 229.085 240.046 230.107 239.653 231.056C239.261 232.005 238.672 232.861 237.925 233.567C223.249 246.761 207.435 258.636 190.667 269.054H190.177L175.967 276.988C169.965 280.352 163.195 282.111 156.312 282.096C149.184 282.122 142.174 280.272 135.99 276.732C129.806 273.192 124.665 268.088 121.087 261.934L90.7612 209.709C32.7779 250.903 -2.82878 330.028 16.4446 430.239C16.7609 431.928 17.6569 433.454 18.9784 434.555C20.2999 435.656 21.9644 436.263 23.6857 436.272H57.8768C59.7604 436.32 61.5918 435.651 62.9979 434.399C64.404 433.147 65.2789 431.407 65.4445 429.533C67.051 417.394 73.0224 406.251 82.2471 398.18C91.4717 390.108 103.321 385.658 115.588 385.658C127.855 385.658 139.704 390.108 148.929 398.18C158.153 406.251 164.125 417.394 165.731 429.533C165.944 431.315 166.804 432.957 168.149 434.149C169.493 435.341 171.229 435.999 173.027 436H206.456C208.25 435.988 209.98 435.325 211.322 434.136C212.663 432.946 213.527 431.31 213.751 429.533C215.358 417.394 221.329 406.251 230.554 398.18C239.778 390.108 251.627 385.658 263.895 385.658C276.162 385.658 288.011 390.108 297.235 398.18C306.46 406.251 312.431 417.394 314.038 429.533C314.262 431.31 315.126 432.946 316.468 434.136C317.81 435.325 319.539 435.988 321.333 436H354.545C356.49 436 358.357 435.236 359.742 433.874C361.128 432.511 361.92 430.659 361.949 428.718C362.711 381.982 375.342 328.289 411.33 301.389C536.008 208.296 503.232 128.519 474.377 99.716ZM347.249 240.305L323.457 228.404C323.454 225.861 324.105 223.36 325.345 221.139C326.586 218.918 328.375 217.052 330.544 215.717C332.712 214.382 335.186 213.624 337.731 213.514C340.276 213.404 342.807 213.947 345.083 215.091C347.358 216.234 349.302 217.94 350.73 220.046C352.157 222.152 353.021 224.588 353.238 227.121C353.455 229.654 353.019 232.201 351.97 234.519C350.922 236.836 349.297 238.847 347.249 240.36V240.305Z" fill="url(#paint0_linear)"/>
</g>
<defs>
<linearGradient id="paint0_linear" x1="19.1668" y1="235.088" x2="491.726" y2="284.831" gradientUnits="userSpaceOnUse">
<stop stop-color="#06A0CE"/>
<stop offset="1" stop-color="#51CBBF"/>
</linearGradient>
<clipPath id="clip0">
<rect width="490" height="359" fill="white" transform="translate(11 77)"/>
</clipPath>
</defs>
</svg>
