<svg width="512" height="512" viewBox="0 0 512 512" fill="none" xmlns="http://www.w3.org/2000/svg">
<path d="M192.438 388.851C192.438 388.851 173.866 399.651 205.655 403.306C244.167 407.699 263.85 407.069 306.29 399.037C306.29 399.037 317.448 406.033 333.031 412.093C237.891 452.868 117.711 409.731 192.438 388.851Z" fill="#5382A1"/>
<path d="M180.813 335.641C180.813 335.641 159.982 351.06 191.795 354.351C232.935 358.595 265.423 358.942 321.641 348.117C321.641 348.117 329.417 356 341.644 360.311C226.614 393.947 98.4916 362.964 180.813 335.641Z" fill="#5382A1"/>
<path d="M278.82 245.381C302.262 272.371 272.661 296.658 272.661 296.658C272.661 296.658 332.185 265.93 304.848 227.451C279.316 191.567 259.737 173.737 365.732 112.264C365.732 112.264 199.355 153.817 278.82 245.381Z" fill="#E76F00"/>
<path d="M404.65 428.207C404.65 428.207 418.394 439.532 389.514 448.293C334.598 464.929 160.948 469.952 112.708 448.955C95.3675 441.412 127.886 430.943 138.116 428.746C148.784 426.432 154.88 426.863 154.88 426.863C135.595 413.278 30.2314 453.539 101.36 465.069C295.339 496.527 454.966 450.903 404.65 428.207Z" fill="#5382A1"/>
<path d="M201.369 280.511C201.369 280.511 113.04 301.49 170.089 309.109C194.178 312.334 242.197 311.604 286.926 307.857C323.48 304.773 360.186 298.217 360.186 298.217C360.186 298.217 347.296 303.737 337.971 310.104C248.274 333.695 74.9954 322.72 124.88 298.59C167.067 278.197 201.369 280.511 201.369 280.511Z" fill="#5382A1"/>
<path d="M359.822 369.08C451.003 321.699 408.845 276.166 379.418 282.3C372.206 283.801 368.99 285.102 368.99 285.102C368.99 285.102 371.668 280.908 376.782 279.092C434.996 258.626 479.767 339.455 357.989 371.468C357.989 371.469 359.4 370.208 359.822 369.08Z" fill="#5382A1"/>
<path d="M304.848 13C304.848 13 355.346 63.5147 256.953 141.192C178.053 203.503 238.962 239.03 256.921 279.622C210.865 238.069 177.066 201.489 199.741 167.444C233.022 117.469 325.223 93.2395 304.848 13Z" fill="#E76F00"/>
<path d="M210.329 497.472C297.852 503.075 432.253 494.364 435.436 452.951C435.436 452.951 429.317 468.65 363.103 481.118C288.401 495.176 196.266 493.535 141.62 484.525C141.621 484.524 152.806 493.784 210.329 497.472Z" fill="#5382A1"/>
</svg>
