<svg width="512" height="512" viewBox="0 0 512 512" fill="none" xmlns="http://www.w3.org/2000/svg">
<path d="M493.134 91.0087C485.481 91.2532 487.901 93.4583 471.364 97.5278C454.665 101.637 434.267 100.377 416.285 107.919C362.605 130.431 351.835 207.376 303.034 234.939C266.557 255.543 229.755 257.186 196.668 267.554C174.924 274.373 151.138 288.356 131.437 305.333C116.145 318.516 115.746 330.107 99.768 346.64C82.6778 364.326 31.8444 346.939 8.80591 374.007C16.2274 381.511 19.4811 383.613 34.1066 381.666C31.0786 387.405 13.2291 392.241 16.7231 400.684C20.3996 409.568 63.5523 415.59 102.78 391.906C121.049 380.877 135.6 364.979 164.052 361.184C200.871 356.277 243.285 364.332 285.909 370.478C279.589 389.323 266.9 401.855 256.736 416.863C253.588 420.253 263.058 420.633 273.861 418.584C293.295 413.779 307.3 409.909 321.967 401.373C339.985 390.883 342.715 363.991 364.823 358.172C377.141 377.105 410.642 381.577 431.431 366.434C413.19 361.27 408.148 322.443 414.306 305.333C420.138 289.138 425.901 263.231 431.775 241.823C438.081 218.832 440.408 189.853 448.04 178.141C459.522 160.521 472.21 154.47 483.225 144.534C494.24 134.598 504.323 124.926 503.992 102.191C503.885 94.868 500.099 90.7861 493.134 91.0087Z" fill="#002B64"/>
<path d="M24.6513 399.064C52.5861 403.066 69.5744 399.064 92.007 389.335C111.094 381.057 129.528 363.992 152.068 356.757C185.171 346.136 221.472 356.771 256.859 358.892C265.476 359.409 274.037 359.415 282.489 358.495C295.671 350.393 295.398 320.087 308.229 317.312C307.851 359.831 290.42 385.306 272.189 409.975C310.611 403.189 333.602 380.966 349.131 351.285C353.843 342.286 357.866 332.604 361.424 322.456C366.923 326.677 363.806 339.521 366.571 346.48C393.035 331.739 408.189 298.095 418.224 264.069C429.834 224.69 434.587 184.814 442.075 173.163C449.384 161.79 460.757 154.778 471.139 147.497C482.936 139.219 493.459 130.592 495.276 114.818C482.834 113.667 479.957 110.789 478.117 104.519C471.888 108.03 466.16 108.781 459.689 108.974C454.074 109.145 447.905 108.894 440.371 109.668C378.06 116.068 370.143 184.746 330.204 223.679C327.299 226.51 324.157 229.151 320.836 231.629C306.849 242.052 289.69 249.502 273.91 255.532C248.369 265.292 224.086 265.986 200.122 274.41C182.531 280.592 164.655 289.561 150.206 299.45C146.593 301.921 143.189 304.451 140.058 307.012C131.579 313.949 126.014 321.646 120.63 329.563C115.078 337.723 109.717 346.117 101.543 354.136C88.3031 367.136 38.828 357.928 21.4101 369.984C19.4687 371.325 17.9265 372.936 16.8773 374.869C26.3807 379.187 32.7283 376.538 43.661 377.747C45.0957 388.121 21.1044 394.286 24.6513 399.064Z" fill="white"/>
<path d="M402.155 324.325C402.899 336.227 409.808 359.841 415.908 365.58C403.962 368.486 383.383 363.686 378.104 355.259C380.816 343.093 394.932 331.97 402.155 324.325Z" fill="white"/>
<path d="M419.656 135.436C428.476 143.095 446.985 136.948 443.677 121.711C429.972 120.577 422.032 125.228 419.656 135.436Z" fill="#002B64"/>
<path d="M481.151 117.63C478.805 122.551 474.314 128.896 474.314 141.423C474.294 143.574 472.681 145.047 472.653 141.731C472.774 129.488 476.016 124.195 479.458 117.239C481.058 114.389 482.022 115.565 481.151 117.63Z" fill="#002B64"/>
<path d="M478.789 115.777C476.021 120.472 469.357 129.036 468.255 141.517C468.052 143.656 466.311 144.981 466.576 141.674C467.776 129.491 473.102 121.865 477.145 115.237C478.979 112.541 479.841 113.797 478.789 115.777Z" fill="#002B64"/>
<path d="M476.635 113.32C473.482 117.765 463.224 128.05 461.079 140.396C460.693 142.508 458.848 143.687 459.391 140.412C461.61 128.37 470.453 118.905 475.038 112.646C477.092 110.109 477.844 111.434 476.635 113.32Z" fill="#002B64"/>
<path d="M474.713 110.58C470.968 114.537 458.738 127.654 454.883 139.572C454.2 141.61 452.209 142.519 453.208 139.352C457.097 127.742 467.806 115.237 473.226 109.685C475.619 107.463 476.175 108.881 474.713 110.58Z" fill="#002B64"/>
</svg>
