<svg width="512" height="512" viewBox="0 0 512 512" fill="none" xmlns="http://www.w3.org/2000/svg">
<g clip-path="url(#clip0)">
<path d="M39.2402 0.156616H473.072C494.569 0.156616 512.156 17.7444 512.156 39.2406V473.073C512.156 494.569 494.569 512.156 473.072 512.156H39.2402C17.744 512.156 0.15625 494.569 0.15625 473.073V39.2406C0.15625 17.7444 17.744 0.156616 39.2402 0.156616Z" fill="#4C9BD6"/>
<path d="M396.859 420.309H377.968C377.968 268.533 252.899 145.418 99.1691 145.418V125.876C263.322 125.876 396.859 258.111 396.859 420.309Z" fill="white"/>
<path d="M409.886 319.342C387.087 224.238 310.222 144.767 213.815 116.757L217.724 101.774C319.993 131.087 401.418 215.118 424.869 315.434L409.886 319.342ZM424.217 229.449C400.115 177.988 361.031 134.345 312.177 104.38L318.691 93.3063C369.5 124.573 409.886 169.52 435.291 223.586L424.217 229.449Z" fill="white"/>
</g>
<defs>
<clipPath id="clip0">
<rect width="512" height="512" fill="white"/>
</clipPath>
</defs>
</svg>
