<svg width="512" height="512" viewBox="0 0 512 512" fill="none" xmlns="http://www.w3.org/2000/svg">
<path d="M481.079 163.137C475.457 128.703 460.499 98.4847 437.007 74.9929C413.515 51.5012 383.498 36.6431 348.963 31.0212C321.355 11.2439 289.631 0 256 0C222.369 0 190.645 11.2439 163.037 31.0212C128.502 36.6431 98.3843 51.5012 74.9929 74.9929C51.0996 98.7859 36.6431 129.205 31.1216 162.836C11.2439 190.544 0 222.268 0 256C0 289.732 11.2439 321.456 31.1216 349.164C36.6431 382.795 51.0996 413.214 74.9929 437.007C98.3843 460.398 128.502 475.357 163.037 480.979C190.745 500.756 222.369 512 256 512C289.631 512 321.255 500.756 348.963 480.979C383.498 475.357 413.616 460.398 437.007 437.007C460.9 413.114 475.257 382.695 480.878 349.164C500.756 321.456 512 289.732 512 256C512 222.268 500.756 190.745 481.079 163.137ZM474.855 225.079C474.052 231.103 472.947 237.026 471.642 243.049C464.414 220.562 454.475 199.078 442.127 178.999C436.605 156.11 428.474 133.923 417.631 112.941C440.621 127.799 459.997 145.669 474.554 165.747C477.566 185.324 477.666 205.402 474.855 225.079ZM446.444 200.383C455.78 218.152 463.109 236.825 468.43 256.201C463.109 275.576 455.68 294.249 446.344 312.019C452.668 275.075 452.769 237.327 446.444 200.383ZM176.088 342.438C182.613 337.92 189.842 334.607 197.471 332.599C229.798 325.07 244.355 322.66 264.031 314.127C300.976 298.165 339.125 260.618 348.963 219.758C332.8 258.711 289.23 290.234 250.679 301.678C224.376 309.509 170.566 315.332 170.265 315.332L168.86 314.127C138.14 296.659 141.754 227.991 200.784 209.619C226.585 201.587 256.904 208.916 284.612 204.198C314.127 199.178 349.264 179.602 364.825 151.994C377.173 198.576 391.027 270.958 355.087 312.822C310.613 364.424 212.631 319.247 176.088 342.438ZM312.019 446.344C294.249 455.78 275.376 463.209 256 468.53C236.524 463.209 217.751 455.78 199.981 446.344C237.026 452.668 274.974 452.668 312.019 446.344ZM118.061 393.939C131.213 407.09 145.468 419.137 160.527 429.879C141.453 423.956 123.181 416.025 105.813 406.086C95.8745 388.718 87.9435 370.246 82.0204 351.172C92.7624 366.532 104.91 380.787 118.061 393.939ZM82.0204 160.728C87.9435 141.653 95.9749 123.181 105.813 105.813C123.181 95.9749 141.453 87.9435 160.527 82.0204C145.368 92.8627 131.213 104.809 118.061 117.961C104.91 131.213 92.7624 145.468 82.0204 160.728ZM149.685 347.758C141.151 347.959 134.124 341.233 133.923 332.7C133.722 324.166 140.449 317.139 148.982 316.938C157.515 316.737 164.543 323.464 164.744 331.997V332.097C164.844 340.631 158.118 347.558 149.685 347.758ZM199.981 65.6565C217.751 56.2196 236.624 48.7906 256 43.4698C275.476 48.7906 294.249 56.2196 312.019 65.6565C274.974 59.3318 237.026 59.3318 199.981 65.6565ZM393.939 393.939C407.09 380.787 419.137 366.532 429.98 351.373C424.056 370.447 416.025 388.819 406.187 406.086C388.819 415.925 370.547 423.856 351.473 429.879C366.632 419.137 380.787 407.09 393.939 393.939ZM393.939 118.061C380.787 104.91 366.632 92.8628 351.473 82.1208C370.547 88.0439 388.819 96.0753 406.187 105.914C416.025 123.282 424.056 141.653 429.98 160.828C419.238 145.468 407.09 131.213 393.939 118.061ZM432.188 79.8118C451.664 99.1875 464.916 123.583 471.642 151.191C455.379 131.915 434.899 114.849 411.005 100.995C397.151 77.1012 380.085 56.6212 360.809 40.3577C388.618 47.0839 412.813 60.3357 432.188 79.8118ZM399.159 94.3686C378.278 83.6267 356.191 75.4949 333.302 70.0737C313.224 57.6251 291.639 47.5859 269.151 40.3577C284.712 36.9443 300.574 35.2376 316.536 35.1373C326.576 35.1373 336.515 35.9404 346.353 37.4463C366.532 52.0031 384.301 71.3788 399.159 94.3686ZM256 6.82667C283.708 6.82667 310.011 14.858 333.704 29.1137C328.082 28.6118 322.359 28.411 316.536 28.411C296.056 28.5114 275.777 31.222 256 36.5427C236.223 31.222 215.944 28.5114 195.464 28.411C189.641 28.411 183.918 28.6118 178.296 29.1137C201.989 14.7576 228.292 6.82667 256 6.82667ZM165.647 37.4463C175.486 35.9404 185.525 35.1373 195.464 35.1373C211.426 35.2376 227.288 36.9443 242.849 40.3577C220.361 47.5859 198.776 57.5247 178.698 70.0737C155.909 75.4949 133.722 83.7271 112.841 94.3686C127.699 71.3788 145.468 52.0031 165.647 37.4463ZM79.8118 79.8118C99.1875 60.4361 123.482 47.0839 151.191 40.3577C131.915 56.6212 114.849 77.1012 100.995 100.995C77.2016 114.849 56.822 131.715 40.5584 150.99C47.1843 123.884 60.0345 99.4886 79.8118 79.8118ZM37.5467 165.547C52.2039 145.468 71.4792 127.699 94.3686 112.941C83.6267 133.923 75.4949 156.11 69.9733 178.999C57.6251 199.078 47.6863 220.562 40.458 243.049C34.7357 216.245 33.6314 190.042 37.5467 165.547ZM65.6565 311.617C56.32 293.948 48.9914 275.275 43.6706 256C48.9914 236.725 56.32 218.052 65.6565 200.383C59.3318 237.227 59.3318 274.773 65.6565 311.617ZM29.3145 334.105C14.858 310.312 6.82667 283.909 6.82667 256C6.82667 228.091 14.9584 201.688 29.3145 177.895C27.2063 202.993 29.7161 229.396 36.7435 256C29.6157 282.604 27.1059 309.007 29.3145 334.105ZM40.458 269.051C47.6863 291.438 57.6251 312.922 69.9733 333.001C75.4949 355.89 83.6267 378.077 94.3686 399.059C71.4792 384.301 52.2039 366.431 37.5467 346.453C33.6314 321.958 34.7357 295.755 40.458 269.051ZM79.8118 432.188C60.1349 412.511 47.1843 388.116 40.5584 361.01C56.7216 380.185 77.2016 397.151 100.995 411.005C114.849 434.798 131.915 455.379 151.191 471.642C123.382 464.916 99.1875 451.664 79.8118 432.188ZM112.941 417.631C133.823 428.373 155.909 436.505 178.698 441.926C198.776 454.375 220.361 464.414 242.849 471.642C227.288 475.056 211.426 476.762 195.464 476.762C185.424 476.762 175.486 475.959 165.647 474.453C145.468 459.897 127.699 440.621 112.941 417.631ZM256 505.173C228.292 505.173 201.989 497.142 178.296 482.886C183.918 483.388 189.641 483.589 195.464 483.589C215.944 483.489 236.223 480.778 256 475.457C275.777 480.778 296.056 483.489 316.536 483.589C322.359 483.589 328.082 483.388 333.704 482.886C310.011 497.242 283.708 505.173 256 505.173ZM346.353 474.554C336.515 476.06 326.475 476.863 316.536 476.863C300.574 476.762 284.712 475.056 269.151 471.743C291.639 464.515 313.224 454.475 333.302 442.027C356.091 436.605 378.278 428.373 399.159 417.732C384.301 440.621 366.532 459.897 346.353 474.554ZM432.188 432.188C412.813 451.564 388.518 464.916 360.809 471.642C380.085 455.379 397.151 434.899 411.005 411.005C434.798 397.151 455.178 380.286 471.442 361.01C464.916 388.116 451.865 412.511 432.188 432.188ZM474.453 346.453C459.796 366.532 440.521 384.301 417.631 399.059C428.373 378.177 436.505 356.091 442.027 333.202C454.375 313.123 464.314 291.74 471.642 269.252C477.264 295.856 478.369 322.058 474.453 346.453ZM475.357 256.301C477.967 246.362 480.075 236.223 481.481 226.083C483.689 210.322 484.191 194.259 482.886 178.397C497.142 202.089 505.173 228.392 505.173 256.1C505.173 283.809 497.042 310.413 482.686 334.206C484.794 309.107 482.384 282.704 475.357 256.301Z" fill="#6DB33F"/>
</svg>
