<svg width="512" height="512" viewBox="0 0 512 512" fill="none" xmlns="http://www.w3.org/2000/svg">
<g clip-path="url(#clip0)">
<path d="M493.794 230.249L397.826 64.2505C389.518 49.8366 369.083 38 352.373 38H160.628C144.013 38 123.483 49.8366 115.175 64.2505L19.3028 230.249C10.9951 244.663 10.9951 268.241 19.3028 282.655L115.175 448.749C123.483 463.163 143.917 475 160.628 475H352.468C369.083 475 389.518 463.163 397.921 448.749L493.794 282.655C502.101 268.241 502.101 244.663 493.794 230.249ZM235.779 129.829C235.779 118.947 244.66 110.07 255.546 110.07C266.431 110.07 275.312 118.947 275.312 129.829V247.909C275.312 258.791 266.431 267.668 255.546 267.668C244.66 267.668 235.779 258.791 235.779 247.909V129.829ZM255.546 381.93C181.636 381.93 121.477 321.792 121.477 247.909C121.573 205.526 141.626 165.721 175.62 140.329C183.45 134.507 194.432 136.129 200.257 143.957C206.082 151.784 204.458 162.762 196.628 168.585C152.798 201.135 143.631 263.087 176.193 306.901C208.755 350.716 270.728 359.879 314.558 327.329C339.672 308.715 354.473 279.219 354.473 247.909C354.378 216.504 339.481 187.008 314.176 168.298C306.346 162.571 304.723 151.498 310.452 143.67C316.182 135.843 327.259 134.22 335.089 139.948C369.37 165.244 389.518 205.335 389.614 247.909C389.614 321.888 329.455 381.93 255.546 381.93Z" fill="#6DB33F"/>
</g>
<defs>
<clipPath id="clip0">
<rect width="487" height="437" fill="white" transform="translate(13 38)"/>
</clipPath>
</defs>
</svg>
