<svg width="397" height="496" viewBox="0 0 397 496" fill="none" xmlns="http://www.w3.org/2000/svg">
<g clip-path="url(#clip0)">
<path d="M198.126 345.878C100.337 345.878 57.743 337.825 0 324.369V473.879L2.71732 474.559C58.4223 488.15 100.541 496.034 198.126 496.034C295.712 496.034 338.578 487.947 394.249 474.389L397 473.709V324.199C339.427 337.757 296.425 345.878 198.126 345.878Z" fill="#6DB33F"/>
<path d="M198.126 0C100.541 0 58.4223 8.01918 2.71732 21.4751L0 22.1547V180.092C57.743 166.5 100.337 158.583 198.126 158.583C295.916 158.583 339.427 166.704 397 180.296V22.3246L394.249 21.645C338.578 8.08714 296.222 0 198.126 0Z" fill="#6DB33F"/>
<path d="M397 188.859L394.249 188.179C338.578 174.621 296.222 166.5 198.126 166.5C100.031 166.5 58.4223 174.553 2.71732 187.975L0 188.655V315.806L2.71732 316.452C58.4223 330.044 100.541 337.961 198.126 337.961C295.712 337.961 338.578 329.84 394.249 316.282L397 315.602V188.859Z" fill="#6DB33F"/>
</g>
<defs>
<clipPath id="clip0">
<rect width="397" height="496" fill="white"/>
</clipPath>
</defs>
</svg>
